<svg width="58" height="58" viewBox="0 0 58 58" fill="none" xmlns="http://www.w3.org/2000/svg">
<path d="M0 58C7.51616 46.31 14.9596 34.7133 22.5 23C30.0162 34.7133 37.4596 46.31 45 58C29.9434 58 15.0808 58 0 58ZM11.4682 52.0033C18.9116 52.0033 26.0884 52.0033 33.4833 52.0033C29.7737 46.24 26.1611 40.6167 22.4758 34.8767C18.7419 40.6633 15.1778 46.24 11.4682 52.0033Z" fill="#488F4D"/>
<path d="M58 58L47.9885 57.9762L24 20.4356L36.8754 0L41.9424 6.94668L33.8402 19.7933L58 58Z" fill="#E36F2F"/>
<path d="M52.6802 26.9785L47.788 33.4158C47.1682 34.2321 45.9507 34.1855 45.3973 33.3225L43.25 29.9639C42.8958 29.4042 42.918 28.6578 43.3164 28.1214L48.2308 21.5908C48.8506 20.7512 50.0902 20.8211 50.6436 21.7074L52.7688 25.1593C53.1008 25.7191 53.0787 26.4421 52.6802 26.9785Z" fill="#DC402C"/>
</svg>
