<svg width="16" height="16" viewBox="0 0 16 16" fill="none" xmlns="http://www.w3.org/2000/svg">
<path d="M13.3334 10.6667V13.3334C11.4947 13.3334 9.95335 13.0034 8.66669 12.4501C6.10602 11.3487 4.54935 9.36341 3.66669 7.33342C2.93335 5.64808 2.66669 3.93208 2.66669 2.66675H5.33335L6.00002 5.33341L3.66669 7.33342C4.54935 9.36341 6.10602 11.3487 8.66669 12.4501L10.6667 10.0001L13.3334 10.6667Z" fill="#545454"/>
<path d="M8.66669 12.4501C9.95335 13.0034 11.4947 13.3334 13.3334 13.3334V10.6667L10.6667 10.0001L8.66669 12.4501ZM8.66669 12.4501C6.10602 11.3487 4.54935 9.36341 3.66669 7.33341M3.66669 7.33341C2.93335 5.64808 2.66669 3.93208 2.66669 2.66675H5.33335L6.00002 5.33341L3.66669 7.33341Z" stroke="#545454" stroke-width="2" stroke-linecap="round" stroke-linejoin="round"/>
</svg>
