<svg width="18" height="18" viewBox="0 0 18 18" fill="none" xmlns="http://www.w3.org/2000/svg">
<path d="M17.2893 8.69679C17.2886 4.06991 13.688 0.253411 9.09592 0.012031C4.50382 -0.229349 0.527647 3.18888 0.0477968 7.79051C-0.432053 12.3921 2.75239 16.5664 7.29427 17.2893V11.2111H5.09969V8.69679H7.29427V6.78052C7.29427 4.60059 8.58498 3.39646 10.5591 3.39646C11.2075 3.40551 11.8543 3.4622 12.4944 3.56607V5.70686H11.4041C11.0278 5.65657 10.6491 5.78123 10.3751 6.04563C10.1011 6.31003 9.96146 6.68547 9.99563 7.06592V8.69679H12.3934L12.0098 11.2111H9.99563V17.2893C14.1966 16.6206 17.29 12.9764 17.2893 8.69679Z" fill="#6B6B6B"/>
</svg>
