<svg width="17" height="17" viewBox="0 0 17 17" fill="none" xmlns="http://www.w3.org/2000/svg">
<path fill-rule="evenodd" clip-rule="evenodd" d="M4.81314 0.049138C5.6867 0.00955462 5.96549 0 8.18967 0C10.4138 0 10.6926 0.00955462 11.5662 0.049138C12.8977 0.109878 14.0664 0.4361 15.0048 1.3745C15.9436 2.31324 16.2695 3.48232 16.3302 4.81314C16.3698 5.6867 16.3793 5.96549 16.3793 8.18967C16.3793 10.4138 16.3698 10.6926 16.3302 11.5662C16.2695 12.8977 15.9432 14.0664 15.0048 15.0048C14.0661 15.9436 12.8967 16.2695 11.5662 16.3302C10.6926 16.3698 10.4138 16.3793 8.18967 16.3793C5.96549 16.3793 5.6867 16.3698 4.81314 16.3302C3.48163 16.2695 2.3129 15.9432 1.3745 15.0048C0.435759 14.0661 0.109878 12.897 0.049138 11.5662C0.00955462 10.6926 0 10.4138 0 8.18967C0 5.96549 0.00955462 5.6867 0.049138 4.81314C0.109878 3.48163 0.4361 2.3129 1.3745 1.3745C2.31324 0.435759 3.48232 0.109878 4.81314 0.049138ZM11.4989 1.5234C10.6353 1.48382 10.3763 1.47563 8.18961 1.47563C6.00297 1.47563 5.74397 1.48416 4.8803 1.5234C3.94838 1.56606 3.08335 1.75272 2.41794 2.41813C1.75253 3.08354 1.56587 3.94857 1.52322 4.88049C1.48363 5.74416 1.47544 6.00316 1.47544 8.1898C1.47544 10.3764 1.48397 10.6354 1.52322 11.4991C1.56587 12.431 1.75253 13.2961 2.41794 13.9615C3.08335 14.6269 3.94838 14.8135 4.8803 14.8562C5.74363 14.8958 6.00263 14.904 8.18961 14.904C10.3766 14.904 10.6356 14.8954 11.4989 14.8562C12.4308 14.8135 13.2959 14.6269 13.9613 13.9615C14.6267 13.2961 14.8133 12.431 14.856 11.4991C14.8956 10.6354 14.9038 10.3764 14.9038 8.1898C14.9038 6.00316 14.8952 5.74416 14.856 4.88049C14.8133 3.94857 14.6267 3.08354 13.9613 2.41813C13.2959 1.75272 12.4308 1.56606 11.4989 1.5234Z" fill="#6B6B6B"/>
<path fill-rule="evenodd" clip-rule="evenodd" d="M4.46704 8.56212C4.46704 6.30072 6.30015 4.46729 8.56188 4.46729C10.8236 4.46729 12.6567 6.30039 12.6567 8.56212C12.6567 10.8238 10.8236 12.657 8.56188 12.657C6.30015 12.657 4.46704 10.8235 4.46704 8.56212ZM5.90374 8.56205C5.90374 10.03 7.09391 11.2202 8.56186 11.2202C10.0298 11.2202 11.22 10.03 11.22 8.56205C11.22 7.0941 10.0298 5.90393 8.56186 5.90393C7.09391 5.90393 5.90374 7.0941 5.90374 8.56205Z" fill="#6B6B6B"/>
<circle cx="12.2845" cy="4.0948" r="1.11677" fill="#6B6B6B"/>
</svg>
