<svg width="17" height="17" viewBox="0 0 17 17" fill="none" xmlns="http://www.w3.org/2000/svg">
<path fill-rule="evenodd" clip-rule="evenodd" d="M0.682473 0H15.6969C16.0722 0 16.3793 0.307113 16.3793 0.682473V15.6969C16.3793 16.0722 16.0722 16.3793 15.6969 16.3793H0.682473C0.307113 16.3793 0 16.0722 0 15.6969V0.682473C0 0.307113 0.307113 0 0.682473 0ZM2.42281 13.9566H4.84558V6.1423H2.42281V13.9566ZM3.65126 5.08443C2.86641 5.08443 2.25219 4.4702 2.25219 3.68536C2.25219 2.90052 2.86641 2.28629 3.65126 2.28629C4.4361 2.28629 5.05033 2.90052 5.05033 3.68536C5.05033 4.43608 4.4361 5.08443 3.65126 5.08443ZM11.5338 13.9565H13.9224V9.65695C13.9224 7.54129 13.4788 5.93747 11.0219 5.93747C9.86174 5.93747 9.04277 6.58582 8.73566 7.20005H8.70153V6.14222H6.38113V13.9565H8.8039V10.1006C8.8039 9.07685 9.00865 8.08726 10.2712 8.08726C11.5338 8.08726 11.5338 9.24747 11.5338 10.1688V13.9565Z" fill="#6B6B6B"/>
</svg>
