<svg width="52" height="52" viewBox="0 0 52 52" fill="none" xmlns="http://www.w3.org/2000/svg">
<g filter="url(#filter0_d_89_210)">
<rect x="4" y="3" width="44" height="44" rx="22" fill="white" shape-rendering="crispEdges"/>
<path d="M35.1744 22.6394C34.8209 22.27 34.4553 21.8894 34.3175 21.5547C34.19 21.2481 34.1825 20.74 34.175 20.2478C34.1609 19.3328 34.1459 18.2959 33.425 17.575C32.7041 16.8541 31.6672 16.8391 30.7522 16.825C30.26 16.8175 29.7519 16.81 29.4453 16.6825C29.1116 16.5447 28.73 16.1791 28.3606 15.8256C27.7137 15.2041 26.9788 14.5 26 14.5C25.0212 14.5 24.2872 15.2041 23.6394 15.8256C23.27 16.1791 22.8894 16.5447 22.5547 16.6825C22.25 16.81 21.74 16.8175 21.2478 16.825C20.3328 16.8391 19.2959 16.8541 18.575 17.575C17.8541 18.2959 17.8438 19.3328 17.825 20.2478C17.8175 20.74 17.81 21.2481 17.6825 21.5547C17.5447 21.8884 17.1791 22.27 16.8256 22.6394C16.2041 23.2863 15.5 24.0212 15.5 25C15.5 25.9788 16.2041 26.7128 16.8256 27.3606C17.1791 27.73 17.5447 28.1106 17.6825 28.4453C17.81 28.7519 17.8175 29.26 17.825 29.7522C17.8391 30.6672 17.8541 31.7041 18.575 32.425C19.2959 33.1459 20.3328 33.1609 21.2478 33.175C21.74 33.1825 22.2481 33.19 22.5547 33.3175C22.8884 33.4553 23.27 33.8209 23.6394 34.1744C24.2863 34.7959 25.0212 35.5 26 35.5C26.9788 35.5 27.7128 34.7959 28.3606 34.1744C28.73 33.8209 29.1106 33.4553 29.4453 33.3175C29.7519 33.19 30.26 33.1825 30.7522 33.175C31.6672 33.1609 32.7041 33.1459 33.425 32.425C34.1459 31.7041 34.1609 30.6672 34.175 29.7522C34.1825 29.26 34.19 28.7519 34.3175 28.4453C34.4553 28.1116 34.8209 27.73 35.1744 27.3606C35.7959 26.7137 36.5 25.9788 36.5 25C36.5 24.0212 35.7959 23.2872 35.1744 22.6394ZM30.2806 23.2806L25.0306 28.5306C24.961 28.6004 24.8783 28.6557 24.7872 28.6934C24.6962 28.7312 24.5986 28.7506 24.5 28.7506C24.4014 28.7506 24.3038 28.7312 24.2128 28.6934C24.1217 28.6557 24.039 28.6004 23.9694 28.5306L21.7194 26.2806C21.6497 26.2109 21.5944 26.1282 21.5567 26.0372C21.519 25.9461 21.4996 25.8485 21.4996 25.75C21.4996 25.6515 21.519 25.5539 21.5567 25.4628C21.5944 25.3718 21.6497 25.2891 21.7194 25.2194C21.8601 25.0786 22.051 24.9996 22.25 24.9996C22.3485 24.9996 22.4461 25.019 22.5372 25.0567C22.6282 25.0944 22.7109 25.1497 22.7806 25.2194L24.5 26.9397L29.2194 22.2194C29.2891 22.1497 29.3718 22.0944 29.4628 22.0567C29.5539 22.019 29.6515 21.9996 29.75 21.9996C29.8485 21.9996 29.9461 22.019 30.0372 22.0567C30.1282 22.0944 30.2109 22.1497 30.2806 22.2194C30.3503 22.2891 30.4056 22.3718 30.4433 22.4628C30.481 22.5539 30.5004 22.6515 30.5004 22.75C30.5004 22.8485 30.481 22.9461 30.4433 23.0372C30.4056 23.1282 30.3503 23.2109 30.2806 23.2806Z" fill="#488F4D"/>
</g>
<defs>
<filter id="filter0_d_89_210" x="0" y="0" width="52" height="52" filterUnits="userSpaceOnUse" color-interpolation-filters="sRGB">
<feFlood flood-opacity="0" result="BackgroundImageFix"/>
<feColorMatrix in="SourceAlpha" type="matrix" values="0 0 0 0 0 0 0 0 0 0 0 0 0 0 0 0 0 0 127 0" result="hardAlpha"/>
<feOffset dy="1"/>
<feGaussianBlur stdDeviation="2"/>
<feComposite in2="hardAlpha" operator="out"/>
<feColorMatrix type="matrix" values="0 0 0 0 0.0470588 0 0 0 0 0.0470588 0 0 0 0 0.0509804 0 0 0 0.05 0"/>
<feBlend mode="normal" in2="BackgroundImageFix" result="effect1_dropShadow_89_210"/>
<feBlend mode="normal" in="SourceGraphic" in2="effect1_dropShadow_89_210" result="shape"/>
</filter>
</defs>
</svg>
