<svg width="52" height="52" viewBox="0 0 52 52" fill="none" xmlns="http://www.w3.org/2000/svg">
<g filter="url(#filter0_d_89_230)">
<rect x="4" y="3" width="44" height="44" rx="22" fill="white" shape-rendering="crispEdges"/>
<path d="M35 20.9999C35.5304 20.9999 36.0391 21.2106 36.4142 21.5857C36.7893 21.9608 37 22.4695 37 22.9999V26.9999C37 27.5303 36.7893 28.039 36.4142 28.4141C36.0391 28.7892 35.5304 28.9999 35 28.9999H33.938C33.6944 30.9333 32.7535 32.7113 31.292 34.0001C29.8304 35.289 27.9487 36.0001 26 35.9999V33.9999C27.5913 33.9999 29.1174 33.3678 30.2426 32.2425C31.3679 31.1173 32 29.5912 32 27.9999V21.9999C32 20.4086 31.3679 18.8825 30.2426 17.7573C29.1174 16.632 27.5913 15.9999 26 15.9999C24.4087 15.9999 22.8826 16.632 21.7574 17.7573C20.6321 18.8825 20 20.4086 20 21.9999V28.9999H17C16.4696 28.9999 15.9609 28.7892 15.5858 28.4141C15.2107 28.039 15 27.5303 15 26.9999V22.9999C15 22.4695 15.2107 21.9608 15.5858 21.5857C15.9609 21.2106 16.4696 20.9999 17 20.9999H18.062C18.306 19.0668 19.2471 17.2892 20.7086 16.0006C22.1701 14.712 24.0516 14.001 26 14.001C27.9484 14.001 29.8299 14.712 31.2914 16.0006C32.7529 17.2892 33.694 19.0668 33.938 20.9999H35ZM21.76 28.7849L22.82 27.0889C23.773 27.686 24.8754 28.0018 26 27.9999C27.1246 28.0018 28.227 27.686 29.18 27.0889L30.24 28.7849C28.9693 29.5812 27.4996 30.0024 26 29.9999C24.5004 30.0024 23.0307 29.5812 21.76 28.7849Z" fill="#488F4D"/>
</g>
<defs>
<filter id="filter0_d_89_230" x="0" y="0" width="52" height="52" filterUnits="userSpaceOnUse" color-interpolation-filters="sRGB">
<feFlood flood-opacity="0" result="BackgroundImageFix"/>
<feColorMatrix in="SourceAlpha" type="matrix" values="0 0 0 0 0 0 0 0 0 0 0 0 0 0 0 0 0 0 127 0" result="hardAlpha"/>
<feOffset dy="1"/>
<feGaussianBlur stdDeviation="2"/>
<feComposite in2="hardAlpha" operator="out"/>
<feColorMatrix type="matrix" values="0 0 0 0 0.0470588 0 0 0 0 0.0470588 0 0 0 0 0.0509804 0 0 0 0.05 0"/>
<feBlend mode="normal" in2="BackgroundImageFix" result="effect1_dropShadow_89_230"/>
<feBlend mode="normal" in="SourceGraphic" in2="effect1_dropShadow_89_230" result="shape"/>
</filter>
</defs>
</svg>
