<svg width="52" height="52" viewBox="0 0 52 52" fill="none" xmlns="http://www.w3.org/2000/svg">
<g filter="url(#filter0_d_89_194)">
<rect x="4" y="3" width="44" height="44" rx="22" fill="white" shape-rendering="crispEdges"/>
<path d="M22.222 16.267C22.362 16.25 22.517 16.25 22.697 16.25H29.303C29.483 16.25 29.638 16.25 29.778 16.267C30.275 16.3288 30.7371 16.5547 31.0912 16.9088C31.4453 17.2629 31.6712 17.725 31.733 18.222L31.736 18.25H32.542C32.754 18.248 33.219 18.244 33.603 18.501C34.1 18.832 34.25 19.401 34.25 20C34.25 22.726 32.797 24.546 30.942 25.557C29.907 27.441 27.995 28.75 26 28.75C24.481 28.75 23.04 27.928 22.003 26.791C21.6584 26.4151 21.356 26.0026 21.101 25.561C19.247 24.555 17.75 22.737 17.75 20C17.75 19.4 17.9 18.832 18.396 18.501C18.781 18.244 19.246 18.248 19.458 18.25H20.264L20.267 18.222C20.3288 17.725 20.5547 17.2629 20.9088 16.9088C21.2629 16.5547 21.725 16.3288 22.222 16.267ZM32.732 19.755C32.6548 19.7503 32.5774 19.7487 32.5 19.75H31.747L31.715 23.04C32.353 22.272 32.75 21.27 32.75 20C32.75 19.882 32.741 19.804 32.732 19.755ZM19.25 20C19.25 21.237 19.638 22.22 20.26 22.982C20.194 22.236 20.212 21.478 20.23 20.724C20.2393 20.3973 20.245 20.0727 20.247 19.75H19.5C19.391 19.75 19.322 19.75 19.269 19.755C19.2549 19.8359 19.2486 19.9179 19.25 20ZM26.23 19.555C26.2108 19.5099 26.1787 19.4714 26.1378 19.4444C26.097 19.4174 26.049 19.403 26 19.403C25.951 19.403 25.903 19.4174 25.8622 19.4444C25.8213 19.4714 25.7892 19.5099 25.77 19.555L25.265 20.767C25.2474 20.8093 25.2185 20.8459 25.1814 20.8729C25.1444 20.8999 25.1007 20.9162 25.055 20.92L23.746 21.025C23.6968 21.0289 23.6498 21.0473 23.611 21.0779C23.5722 21.1084 23.5433 21.1498 23.528 21.1968C23.5127 21.2438 23.5117 21.2942 23.525 21.3418C23.5384 21.3893 23.5655 21.4318 23.603 21.464L24.6 22.318C24.6348 22.348 24.6608 22.387 24.6749 22.4308C24.689 22.4745 24.6908 22.5213 24.68 22.566L24.376 23.842C24.3643 23.8902 24.3671 23.9407 24.3842 23.9872C24.4013 24.0338 24.4318 24.0742 24.4719 24.1033C24.5119 24.1325 24.5598 24.149 24.6093 24.1509C24.6588 24.1528 24.7078 24.14 24.75 24.114L25.87 23.43C25.9092 23.4062 25.9541 23.3935 26 23.3935C26.0459 23.3935 26.0908 23.4062 26.13 23.43L27.25 24.114C27.2922 24.14 27.3412 24.1528 27.3907 24.1509C27.4402 24.149 27.4881 24.1325 27.5281 24.1033C27.5682 24.0742 27.5987 24.0338 27.6158 23.9872C27.6329 23.9407 27.6357 23.8902 27.624 23.842L27.319 22.566C27.3082 22.5213 27.31 22.4745 27.3241 22.4308C27.3382 22.387 27.3642 22.348 27.399 22.318L28.397 21.464C28.4348 21.4319 28.4623 21.3893 28.4758 21.3416C28.4894 21.2939 28.4884 21.2432 28.4731 21.196C28.4578 21.1489 28.4287 21.1073 28.3897 21.0767C28.3507 21.046 28.3035 21.0277 28.254 21.024L26.946 20.92C26.9002 20.9164 26.8562 20.9002 26.819 20.8732C26.7818 20.8462 26.7527 20.8094 26.735 20.767L26.23 19.555ZM26 29.25C26.1989 29.25 26.3897 29.329 26.5303 29.4697C26.671 29.6103 26.75 29.8011 26.75 30V32.25H30C30.1989 32.25 30.3897 32.329 30.5303 32.4697C30.671 32.6103 30.75 32.8011 30.75 33C30.75 33.1989 30.671 33.3897 30.5303 33.5303C30.3897 33.671 30.1989 33.75 30 33.75H22C21.8011 33.75 21.6103 33.671 21.4697 33.5303C21.329 33.3897 21.25 33.1989 21.25 33C21.25 32.8011 21.329 32.6103 21.4697 32.4697C21.6103 32.329 21.8011 32.25 22 32.25H25.25V30C25.25 29.8011 25.329 29.6103 25.4697 29.4697C25.6103 29.329 25.8011 29.25 26 29.25Z" fill="#488F4D"/>
</g>
<defs>
<filter id="filter0_d_89_194" x="0" y="0" width="52" height="52" filterUnits="userSpaceOnUse" color-interpolation-filters="sRGB">
<feFlood flood-opacity="0" result="BackgroundImageFix"/>
<feColorMatrix in="SourceAlpha" type="matrix" values="0 0 0 0 0 0 0 0 0 0 0 0 0 0 0 0 0 0 127 0" result="hardAlpha"/>
<feOffset dy="1"/>
<feGaussianBlur stdDeviation="2"/>
<feComposite in2="hardAlpha" operator="out"/>
<feColorMatrix type="matrix" values="0 0 0 0 0.0470588 0 0 0 0 0.0470588 0 0 0 0 0.0509804 0 0 0 0.05 0"/>
<feBlend mode="normal" in2="BackgroundImageFix" result="effect1_dropShadow_89_194"/>
<feBlend mode="normal" in="SourceGraphic" in2="effect1_dropShadow_89_194" result="shape"/>
</filter>
</defs>
</svg>
