<svg width="52" height="52" viewBox="0 0 52 52" fill="none" xmlns="http://www.w3.org/2000/svg">
<g filter="url(#filter0_d_89_224)">
<rect x="4" y="3" width="44" height="44" rx="22" fill="white" shape-rendering="crispEdges"/>
<path d="M15.75 26.325C15.4667 26.325 15.2293 26.2293 15.038 26.038C14.8467 25.8467 14.7507 25.609 14.75 25.325C14.7493 25.041 14.8453 24.8037 15.038 24.613C15.2307 24.4223 15.468 24.3263 15.75 24.325H19.25C19.5333 24.325 19.771 24.421 19.963 24.613C20.155 24.805 20.2507 25.0423 20.25 25.325C20.2493 25.6077 20.1533 25.8453 19.962 26.038C19.7707 26.2307 19.5333 26.3263 19.25 26.325H15.75ZM21 33C20.1667 33 19.4583 32.7083 18.875 32.125C18.2917 31.5417 18 30.8333 18 30H16.75C16.4167 30 16.15 29.875 15.95 29.625C15.75 29.375 15.6917 29.0917 15.775 28.775L16 27.825H19.125C19.825 27.825 20.4167 27.5833 20.9 27.1C21.3833 26.6167 21.625 26.025 21.625 25.325C21.625 25.1083 21.6 24.9083 21.55 24.725C21.5 24.5417 21.4333 24.3583 21.35 24.175H22.3C23 24.175 23.5917 23.9333 24.075 23.45C24.5583 22.9667 24.8 22.375 24.8 21.675C24.8 20.975 24.5583 20.3833 24.075 19.9C23.5917 19.4167 23 19.175 22.3 19.175H18.5L18.65 18.575C18.75 18.1083 18.9793 17.7293 19.338 17.438C19.6967 17.1467 20.1173 17.0007 20.6 17H30.75C31.0833 17 31.35 17.125 31.55 17.375C31.75 17.625 31.8083 17.9083 31.725 18.225L31.075 21H33C33.3167 21 33.6167 21.071 33.9 21.213C34.1833 21.355 34.4167 21.5507 34.6 21.8L36.475 24.275C36.6583 24.5083 36.775 24.7627 36.825 25.038C36.875 25.3133 36.875 25.5923 36.825 25.875L36.15 29.2C36.1 29.4333 35.9833 29.625 35.8 29.775C35.6167 29.925 35.4083 30 35.175 30H34C34 30.8333 33.7083 31.5417 33.125 32.125C32.5417 32.7083 31.8333 33 31 33C30.1667 33 29.4583 32.7083 28.875 32.125C28.2917 31.5417 28 30.8333 28 30H24C24 30.8333 23.7083 31.5417 23.125 32.125C22.5417 32.7083 21.8333 33 21 33ZM17.75 22.675C17.4667 22.675 17.2293 22.579 17.038 22.387C16.8467 22.195 16.7507 21.9577 16.75 21.675C16.7493 21.3923 16.8453 21.155 17.038 20.963C17.2307 20.771 17.468 20.675 17.75 20.675H22.25C22.5333 20.675 22.771 20.771 22.963 20.963C23.155 21.155 23.2507 21.3923 23.25 21.675C23.2493 21.9577 23.1533 22.1953 22.962 22.388C22.7707 22.5807 22.5333 22.6763 22.25 22.675H17.75ZM21 31C21.2833 31 21.521 30.904 21.713 30.712C21.905 30.52 22.0007 30.2827 22 30C21.9993 29.7173 21.9033 29.48 21.712 29.288C21.5207 29.096 21.2833 29 21 29C20.7167 29 20.4793 29.096 20.288 29.288C20.0967 29.48 20.0007 29.7173 20 30C19.9993 30.2827 20.0953 30.5203 20.288 30.713C20.4807 30.9057 20.718 31.0013 21 31ZM31 31C31.2833 31 31.521 30.904 31.713 30.712C31.905 30.52 32.0007 30.2827 32 30C31.9993 29.7173 31.9033 29.48 31.712 29.288C31.5207 29.096 31.2833 29 31 29C30.7167 29 30.4793 29.096 30.288 29.288C30.0967 29.48 30.0007 29.7173 30 30C29.9993 30.2827 30.0953 30.5203 30.288 30.713C30.4807 30.9057 30.718 31.0013 31 31ZM29.925 26H34.75L34.85 25.475L33 23H30.625L29.925 26Z" fill="#488F4D"/>
</g>
<defs>
<filter id="filter0_d_89_224" x="0" y="0" width="52" height="52" filterUnits="userSpaceOnUse" color-interpolation-filters="sRGB">
<feFlood flood-opacity="0" result="BackgroundImageFix"/>
<feColorMatrix in="SourceAlpha" type="matrix" values="0 0 0 0 0 0 0 0 0 0 0 0 0 0 0 0 0 0 127 0" result="hardAlpha"/>
<feOffset dy="1"/>
<feGaussianBlur stdDeviation="2"/>
<feComposite in2="hardAlpha" operator="out"/>
<feColorMatrix type="matrix" values="0 0 0 0 0.0470588 0 0 0 0 0.0470588 0 0 0 0 0.0509804 0 0 0 0.05 0"/>
<feBlend mode="normal" in2="BackgroundImageFix" result="effect1_dropShadow_89_224"/>
<feBlend mode="normal" in="SourceGraphic" in2="effect1_dropShadow_89_224" result="shape"/>
</filter>
</defs>
</svg>
